# xmcd
#
# Track frame offsets:
#        150
#        14175
#        24960
#        39695
#        54730
#        66585
#        76858
#        90173
#        101582
#        109982
#        118965
#
# Disc length: 1757 seconds
#
# Revision: 7
# Processed by: cddbd v1.5.1PL0 Copyright (c) Steve Scherf et al.
# Submitted via: ExactAudioCopy v0.95a5
#
DISCID=9306db0b
DTITLE=Simon and Garfunkel - Sounds of Silence
DYEAR=1966
DGENRE=Oldies
TTITLE0=The Sounds of Silence
TTITLE1=Leaves That Are Green
TTITLE2=Blessed
TTITLE3=Kathy's Song
TTITLE4=Somewhere They Can't Find Me
TTITLE5=Anji
TTITLE6=Richard Cory
TTITLE7=A Most Peculiar Man
TTITLE8=April Come She Will
TTITLE9=We've Got a Groovey Thing Goin'
TTITLE10=I Am a Rock
EXTD=this album was released in 66 not 68. YEAR: 1966 ID3G: 115
EXTT0=
EXTT1=
EXTT2=
EXTT3=
EXTT4=
EXTT5=
EXTT6=
EXTT7=
EXTT8=
EXTT9=
EXTT10=
PLAYORDER=
